<svg width="7" height="11" viewBox="0 0 7 11" fill="none" xmlns="http://www.w3.org/2000/svg">
<path d="M5.173 0.5C5.71811 0.5 6.16 0.941895 6.16 1.487V7.36C6.16 8.312 5.88467 9.054 5.334 9.586C4.78333 10.1087 4.046 10.37 3.122 10.37C2.18867 10.37 1.43267 10.0993 0.854 9.558C0.493544 9.21527 0.247193 8.7865 0.114949 8.27167C-0.0212048 7.74163 0.443636 7.29 0.990887 7.29C1.52956 7.29 1.90351 7.76952 2.21075 8.21198C2.22459 8.23192 2.23901 8.25126 2.254 8.27C2.45 8.50333 2.73 8.62 3.094 8.62C3.44867 8.62 3.71933 8.508 3.906 8.284C4.09267 8.06 4.186 7.752 4.186 7.36V1.487C4.186 0.941895 4.62789 0.5 5.173 0.5Z" fill="black"/>
</svg>
